<?xml version="1.0" encoding="UTF-8"?>
<svg width="24px" height="24px" viewBox="0 0 24 24" version="1.1" xmlns="http://www.w3.org/2000/svg">
    <g stroke="none" stroke-width="1" fill="none" fill-rule="evenodd">
        <path d="M6,4 L18,4 C19.1,4 20,4.9 20,6 L20,18 C20,19.1 19.1,20 18,20 L6,20 C4.9,20 4,19.1 4,18 L4,6 C4,4.9 4.9,4 6,4 Z M9,9 L15,9 L15,15 L9,15 L9,9 Z M11,11 L13,11 L13,13 L11,13 L11,11 Z M7,2 L17,2 L17,4 L7,4 L7,2 Z M7,20 L17,20 L17,22 L7,22 L7,20 Z M2,7 L4,7 L4,17 L2,17 L2,7 Z M20,7 L22,7 L22,17 L20,17 L20,7 Z" fill="#1A237E"/>
    </g>
</svg>
